<svg width="20" height="20" viewBox="0 0 20 20" fill="none" xmlns="http://www.w3.org/2000/svg">
<path fill-rule="evenodd" clip-rule="evenodd" d="M3 4C2.44772 4 2 4.44772 2 5V15C2 15.5523 2.44772 16 3 16H17C17.5523 16 18 15.5523 18 15V5C18 4.44772 17.5523 4 17 4H3ZM7 10C7 12.2091 8.34315 14 10 14H5C4.44772 14 4 13.5523 4 13V7C4 6.44772 4.44772 6 5 6H10C8.34315 6 7 7.79086 7 10ZM10 6H15C15.5523 6 16 6.44772 16 7V13C16 13.5523 15.5523 14 15 14H10C11.6569 14 13 12.2091 13 10C13 7.79086 11.6569 6 10 6Z" fill="#2679F3"/>
</svg>
